<svg width="76" height="140" viewBox="0 0 76 140" fill="none" xmlns="http://www.w3.org/2000/svg">
<path d="M66.7799 1.29281H9.0111C6.95382 1.25913 4.96708 2.04306 3.48606 3.4729C2.00504 4.90274 1.1505 6.86192 1.10962 8.92125V131.671C1.14893 133.731 2.00279 135.692 3.48398 137.123C4.96517 138.554 6.95281 139.339 9.0111 139.305H66.7799C68.8382 139.339 70.8258 138.554 72.307 137.123C73.7882 135.692 74.6421 133.731 74.6814 131.671V8.92125C74.6405 6.86192 73.786 4.90274 72.305 3.4729C70.8239 2.04306 68.8372 1.25913 66.7799 1.29281V1.29281ZM72.3247 130.27C72.2901 132.09 71.5358 133.822 70.2271 135.086C68.9185 136.35 67.1625 137.043 65.3444 137.012H10.4526C8.63343 137.044 6.87588 136.352 5.56597 135.088C4.25606 133.824 3.5009 132.091 3.46631 130.27V10.3224C3.5009 8.5013 4.25606 6.7684 5.56597 5.50425C6.87588 4.24011 8.63343 3.54809 10.4526 3.58015H65.3503C67.169 3.5481 68.9259 4.24031 70.2349 5.50462C71.5438 6.76893 72.2977 8.50184 72.3307 10.3224L72.3247 130.27Z" fill="#1D1D1B" stroke="#1D1D1B" stroke-miterlimit="10"/>
<path d="M50.642 1.69997H26.2317C23.9787 1.69997 22.1523 3.52829 22.1523 5.78365V6.25667C22.1523 8.51202 23.9787 10.3403 26.2317 10.3403H50.642C52.8949 10.3403 54.7213 8.51202 54.7213 6.25667V5.78365C54.7213 3.52829 52.8949 1.69997 50.642 1.69997Z" fill="#1D1D1B" stroke="#1D1D1B" stroke-miterlimit="10"/>
<path d="M27.099 8.78951C28.2387 8.78951 29.1626 7.86731 29.1626 6.72971C29.1626 5.59211 28.2387 4.66991 27.099 4.66991C25.9593 4.66991 25.0354 5.59211 25.0354 6.72971C25.0354 7.86731 25.9593 8.78951 27.099 8.78951Z" fill="#575756" stroke="#1D1D1B" stroke-miterlimit="10"/>
<path d="M44.0564 5.74173H31.7286C31.2331 5.74173 30.8314 6.14385 30.8314 6.6399C30.8314 7.13594 31.2331 7.53807 31.7286 7.53807H44.0564C44.5519 7.53807 44.9536 7.13594 44.9536 6.6399C44.9536 6.14385 44.5519 5.74173 44.0564 5.74173Z" fill="#575756" stroke="#1D1D1B" stroke-miterlimit="10"/>
<path d="M49.2244 8.14284C50.0073 8.14284 50.642 7.51016 50.642 6.72971C50.642 5.94927 50.0073 5.3166 49.2244 5.3166C48.4414 5.3166 47.8068 5.94927 47.8068 6.72971C47.8068 7.51016 48.4414 8.14284 49.2244 8.14284Z" fill="#575756" stroke="#1D1D1B" stroke-miterlimit="10"/>
</svg>
