<svg width="195" height="64" viewBox="0 0 195 64" fill="none" xmlns="http://www.w3.org/2000/svg">
<rect x="62.5818" y="19.1857" width="28.5914" height="38.8652" stroke="#A800EB" stroke-width="2"/>
<rect x="1" y="44" width="47" height="19" stroke="#A800EB" stroke-width="2"/>
<path d="M103.551 39.5422C102.903 39.5422 102.347 39.4262 101.883 39.1942C101.427 38.9542 101.075 38.5862 100.827 38.0902C100.587 37.5942 100.467 36.9582 100.467 36.1822C100.467 35.3742 100.603 34.7182 100.875 34.2142C101.155 33.7102 101.539 33.3382 102.027 33.0982C102.515 32.8582 103.075 32.7382 103.707 32.7382C104.155 32.7382 104.547 32.7822 104.883 32.8702C105.219 32.9582 105.515 33.0662 105.771 33.1942L105.219 34.6102C104.939 34.4982 104.679 34.4062 104.439 34.3342C104.199 34.2622 103.955 34.2262 103.707 34.2262C103.411 34.2262 103.159 34.2982 102.951 34.4422C102.751 34.5862 102.599 34.8022 102.495 35.0902C102.399 35.3702 102.351 35.7302 102.351 36.1702C102.351 36.5942 102.403 36.9462 102.507 37.2262C102.611 37.4982 102.763 37.7022 102.963 37.8382C103.171 37.9742 103.423 38.0422 103.719 38.0422C104.087 38.0422 104.415 37.9942 104.703 37.8982C104.999 37.7942 105.283 37.6542 105.555 37.4782V39.0382C105.283 39.2142 104.995 39.3422 104.691 39.4222C104.387 39.5022 104.007 39.5422 103.551 39.5422ZM111.382 32.8582H113.422L110.842 36.0142L113.638 39.4222H111.538L108.898 36.0982V39.4222H107.05V32.8582H108.898V36.0502L111.382 32.8582ZM113.638 32.8582H115.642L116.866 36.5542C116.906 36.6662 116.938 36.7822 116.962 36.9022C116.994 37.0142 117.018 37.1342 117.034 37.2622C117.05 37.3822 117.062 37.5102 117.07 37.6462H117.106C117.13 37.4462 117.162 37.2582 117.202 37.0822C117.25 36.8982 117.298 36.7222 117.346 36.5542L118.558 32.8582H120.526L117.766 40.2142C117.598 40.6702 117.378 41.0542 117.106 41.3662C116.842 41.6782 116.53 41.9102 116.17 42.0622C115.818 42.2222 115.422 42.3022 114.982 42.3022C114.782 42.3022 114.606 42.2902 114.454 42.2662C114.31 42.2502 114.182 42.2302 114.07 42.2062V40.7422C114.158 40.7582 114.262 40.7742 114.382 40.7902C114.51 40.8062 114.642 40.8142 114.778 40.8142C115.026 40.8142 115.238 40.7622 115.414 40.6582C115.59 40.5542 115.738 40.4142 115.858 40.2382C115.978 40.0622 116.074 39.8702 116.146 39.6622L116.242 39.3742L113.638 32.8582ZM127.441 32.8582V39.4222H125.593V34.2502H123.301V39.4222H121.453V32.8582H127.441ZM133.625 32.8582H135.665L133.085 36.0142L135.881 39.4222H133.781L131.141 36.0982V39.4222H129.293V32.8582H131.141V36.0502L133.625 32.8582ZM138.568 35.4502C138.568 35.5862 138.56 35.7502 138.544 35.9422C138.536 36.1342 138.528 36.3342 138.52 36.5422C138.512 36.7422 138.5 36.9222 138.484 37.0822C138.468 37.2342 138.456 37.3462 138.448 37.4182L141.4 32.8582H143.596V39.4222H141.82V36.8302C141.82 36.6142 141.828 36.3782 141.844 36.1222C141.86 35.8662 141.876 35.6262 141.892 35.4022C141.916 35.1782 141.932 35.0022 141.94 34.8742L138.988 39.4222H136.804V32.8582H138.568V35.4502ZM147.289 32.8582V35.3662H149.701V32.8582H151.549V39.4222H149.701V36.7462H147.289V39.4222H145.441V32.8582H147.289ZM153.446 39.4222V37.5142H155.366V39.4222H153.446ZM159.672 39.5422C158.64 39.5422 157.844 39.2622 157.284 38.7022C156.732 38.1422 156.456 37.3422 156.456 36.3022C156.456 35.2622 156.732 34.4622 157.284 33.9022C157.844 33.3422 158.64 33.0622 159.672 33.0622C160.712 33.0622 161.508 33.3422 162.06 33.9022C162.62 34.4622 162.9 35.2622 162.9 36.3022C162.9 37.3422 162.62 38.1422 162.06 38.7022C161.508 39.2622 160.712 39.5422 159.672 39.5422ZM159.672 38.2102C160.168 38.2102 160.54 38.0502 160.788 37.7302C161.036 37.4102 161.16 36.9342 161.16 36.3022C161.16 35.6622 161.036 35.1862 160.788 34.8742C160.54 34.5542 160.168 34.3942 159.672 34.3942C159.192 34.3942 158.824 34.5542 158.568 34.8742C158.32 35.1862 158.196 35.6622 158.196 36.3022C158.196 36.9342 158.32 37.4102 158.568 37.7302C158.824 38.0502 159.192 38.2102 159.672 38.2102ZM164.118 39.4222V33.1822H165.774L165.798 33.9142H165.822C166.078 33.6262 166.374 33.4142 166.71 33.2782C167.046 33.1342 167.434 33.0622 167.874 33.0622C168.626 33.0622 169.178 33.2662 169.53 33.6742C169.882 34.0742 170.058 34.7102 170.058 35.5822V39.4222H168.33V35.9302C168.33 35.4262 168.246 35.0622 168.078 34.8382C167.91 34.6062 167.638 34.4902 167.262 34.4902C166.99 34.4902 166.746 34.5462 166.53 34.6582C166.322 34.7702 166.158 34.9182 166.038 35.1022C165.918 35.2862 165.858 35.5022 165.858 35.7502V39.4222H164.118ZM171.596 39.4222V30.6622H173.372V39.4222H171.596ZM175.1 32.2342V30.6622H176.876V32.2342H175.1ZM175.1 39.4222V33.2782H176.876V39.4222H175.1ZM178.567 39.4222V33.1822H180.223L180.247 33.9142H180.271C180.527 33.6262 180.823 33.4142 181.159 33.2782C181.495 33.1342 181.883 33.0622 182.323 33.0622C183.075 33.0622 183.627 33.2662 183.979 33.6742C184.331 34.0742 184.507 34.7102 184.507 35.5822V39.4222H182.779V35.9302C182.779 35.4262 182.695 35.0622 182.527 34.8382C182.359 34.6062 182.087 34.4902 181.711 34.4902C181.439 34.4902 181.195 34.5462 180.979 34.6582C180.771 34.7702 180.607 34.9182 180.487 35.1022C180.367 35.2862 180.307 35.5022 180.307 35.7502V39.4222H178.567ZM189.082 39.5422C187.954 39.5422 187.086 39.2622 186.478 38.7022C185.87 38.1422 185.566 37.3422 185.566 36.3022C185.566 35.2942 185.842 34.5022 186.394 33.9262C186.954 33.3502 187.718 33.0622 188.686 33.0622C189.63 33.0622 190.358 33.3342 190.87 33.8782C191.39 34.4222 191.65 35.1942 191.65 36.1942C191.65 36.3142 191.646 36.4502 191.638 36.6022C191.63 36.7462 191.622 36.8502 191.614 36.9142H186.538V35.7502H190.258L190.03 36.0982C190.03 35.4902 189.918 35.0422 189.694 34.7542C189.478 34.4582 189.142 34.3102 188.686 34.3102C188.222 34.3102 187.87 34.4622 187.63 34.7662C187.39 35.0702 187.27 35.5262 187.27 36.1342V36.6382C187.27 37.1822 187.41 37.5822 187.69 37.8382C187.978 38.0862 188.418 38.2102 189.01 38.2102C189.354 38.2102 189.718 38.1782 190.102 38.1142C190.494 38.0422 190.834 37.9542 191.122 37.8502L191.326 39.1702C191.03 39.2822 190.682 39.3702 190.282 39.4342C189.882 39.5062 189.482 39.5422 189.082 39.5422Z" fill="white"/>
<line x1="5" y1="1" x2="5" y2="44" stroke="#A800EB" stroke-width="2"/>
<line x1="4" y1="1" x2="78" y2="1" stroke="#A800EB" stroke-width="2"/>
<line x1="49" y1="51" x2="78" y2="51" stroke="#A800EB" stroke-width="2"/>
<line x1="78" y1="4.37114e-08" x2="78" y2="52" stroke="#A800EB" stroke-width="2"/>
</svg>
